<svg width="24" height="34" viewBox="0 0 24 34" fill="none" xmlns="http://www.w3.org/2000/svg">
<path d="M19.4646 9.65821C17.0153 7.94744 13.0953 8.55667 11.4399 9.07975C17.2676 9.07975 19.6369 12.0644 20.0984 13.5536C20.7815 14.1628 22.3753 14.7844 23.0892 15.0182C22.9046 13.9413 21.9138 11.369 19.4646 9.65821Z" fill="url(#paint0_linear_260_2482)"/>
<path d="M21.4404 23.7882C24.3081 18.2497 21.8404 14.6128 20.2466 13.4805L20.6466 16.8651C20.8189 17.4251 21.1327 18.7297 20.9727 19.4374C20.8127 20.1451 21.2189 22.6312 21.4466 23.782L21.4404 23.7882Z" fill="url(#paint1_linear_260_2482)"/>
<path d="M20.4613 23.6954C22.1289 21.5477 21.3351 17.3446 20.732 15.5107C19.8828 17.3015 17.9013 21.4677 16.7997 23.7877C15.4213 26.6861 16.3751 28.9323 16.3628 29.0246C16.5597 27.3384 18.3751 26.3784 20.4551 23.7015L20.4613 23.6954Z" fill="url(#paint2_linear_260_2482)"/>
<path d="M4.86182 5.00586C5.70489 6.55663 7.3972 9.67047 7.38489 9.71355L6.65874 9.77509L4.86182 5.00586Z" fill="#072C50"/>
<path d="M4.86113 5.01172C5.69806 6.56864 7.34113 9.6948 7.38421 9.71326L7.86421 9.12864L4.85498 5.01787L4.86113 5.01172Z" fill="url(#paint3_linear_260_2482)"/>
<path d="M1.31689 8.16338C2.65843 9.31415 5.34766 11.6218 5.34766 11.6649L4.6892 11.9788L1.31689 8.15723V8.16338Z" fill="#072C50"/>
<path d="M1.3167 8.17578C2.65209 9.3327 5.29824 11.6712 5.34747 11.6712L5.58747 10.9512L1.31055 8.17578H1.3167Z" fill="url(#paint4_linear_260_2482)"/>
<path d="M12.3632 29.3874C12.7263 27.3444 15.6801 25.1782 17.1078 24.3536C19.8586 21.9351 20.1417 18.0459 19.9324 16.4028L16.7447 15.6582C16.3078 16.7782 15.2617 19.1967 14.5355 19.8613C13.6309 20.6921 9.33552 21.0182 9.13859 25.8736C8.97859 29.7567 11.3417 32.409 12.5047 33.1905C12.2463 32.809 12.0001 31.4305 12.3571 29.3874H12.3632Z" fill="url(#paint5_linear_260_2482)"/>
<path d="M20.0802 13.0432C18.4863 9.10476 13.4771 8.7786 11.1694 9.11091C14.4125 9.56014 15.3356 12.5017 15.4463 13.9294C15.4463 16.2309 13.8156 19.2709 11.1017 21.2648C8.44325 23.2155 8.73248 25.4186 9.14478 26.4094C9.42171 25.4678 10.5232 23.3078 12.6956 22.2063C14.8679 21.1048 15.9448 18.7786 16.2094 17.7509C16.4617 21.7386 14.5663 23.3448 14.6709 23.314C17.8771 22.3355 19.0956 18.754 19.2186 17.5355C19.1325 18.434 19.7602 19.6032 20.0863 20.0709C20.7509 19.3694 21.6802 16.9817 20.0863 13.0432H20.0802Z" fill="url(#paint6_linear_260_2482)"/>
<path d="M0 3.66504C2.21538 6.04042 6.65846 10.8097 6.65231 10.8958L5.38461 11.3389L0 3.66504Z" fill="#072C50"/>
<path d="M0 3.68359C2.20308 6.07129 6.56615 10.8897 6.65231 10.8959L7.24308 9.62821L0 3.68359Z" fill="url(#paint7_linear_260_2482)"/>
<path d="M9.89584 3.9541C9.95122 5.72026 10.0558 9.25872 10.0251 9.29564L9.34814 9.02487L9.89584 3.96026V3.9541Z" fill="#072C50"/>
<path d="M9.88965 3.95996C9.93273 5.72611 9.99426 9.25842 10.025 9.29535L10.7204 8.98765L9.88965 3.95996Z" fill="url(#paint8_linear_260_2482)"/>
<path d="M15.0462 4.82158C14.2708 6.40928 12.7139 9.59081 12.6708 9.60312L12.2031 9.04312L15.0524 4.81543L15.0462 4.82158Z" fill="#072C50"/>
<path d="M15.0339 4.82715C14.2523 6.40869 12.6523 9.55946 12.6646 9.60869L13.4215 9.66407L15.0339 4.82715Z" fill="url(#paint9_linear_260_2482)"/>
<path d="M19.0953 8.52568C17.6183 9.49184 14.6522 11.4303 14.6091 11.418L14.4922 10.698L19.1014 8.51953L19.0953 8.52568Z" fill="#072C50"/>
<path d="M19.0835 8.51953C17.6004 9.47953 14.6158 11.3688 14.6035 11.418L15.2251 11.8488L19.0835 8.51953Z" fill="url(#paint10_linear_260_2482)"/>
<path d="M6.17236 0.439453C7.05236 3.55945 8.81852 9.83638 8.77544 9.91022L7.44621 9.72561L6.17236 0.439453Z" fill="#072C50"/>
<path d="M6.16602 0.452148C7.03371 3.5783 8.70755 9.86753 8.7814 9.91061L9.88909 9.05523L6.16602 0.452148Z" fill="url(#paint11_linear_260_2482)"/>
<path d="M12.7941 0.0771484C12.3141 3.28946 11.3479 9.73253 11.2803 9.78176L10.1479 9.06792L12.7941 0.0771484Z" fill="#072C50"/>
<path d="M12.7815 0.0888672C12.2831 3.29502 11.2308 9.71348 11.28 9.78733L12.64 9.46117L12.7815 0.0888672Z" fill="url(#paint12_linear_260_2482)"/>
<path d="M19.766 3.37598C17.6675 5.84982 13.4398 10.816 13.3537 10.8221L12.769 9.61598L19.766 3.37598Z" fill="#072C50"/>
<path d="M19.7479 3.37598C17.6309 5.83752 13.3479 10.7298 13.354 10.8221L14.6771 11.2652L19.7417 3.38213L19.7479 3.37598Z" fill="url(#paint13_linear_260_2482)"/>
<path d="M23.68 9.25879C20.6523 10.4157 14.56 12.7419 14.48 12.7111L14.5477 11.3696L23.68 9.25879Z" fill="#072C50"/>
<path d="M23.6679 9.25195C20.634 10.3966 14.5233 12.6304 14.4863 12.7104L15.434 13.732L23.6679 9.25195Z" fill="url(#paint14_linear_260_2482)"/>
<path d="M3.48904 15.8183C3.21211 17.0491 3.65519 18.2922 3.88904 18.7168C4.93519 17.1783 7.02134 16.3353 7.94442 16.0891C10.1167 18.1014 11.9321 16.2491 12.289 15.1476C11.8706 19.7322 5.66134 20.4399 5.9875 26.286C6.24596 30.9691 10.4552 32.8399 12.529 33.1845C10.9721 32.046 9.1075 29.523 9.1075 25.6645C9.1075 22.803 10.5229 21.966 11.8398 20.7722C12.6337 20.0583 14.0921 18.5814 14.6829 17.0614C15.5321 14.8707 14.6829 11.6276 11.2244 10.6307C7.76596 9.63373 5.86442 12.1137 5.44596 13.0245C5.11365 13.7507 4.03057 15.203 3.48904 15.8122V15.8183Z" fill="url(#paint15_linear_260_2482)"/>
<path d="M3.7044 20.1077C3.91978 19.8492 4.4367 19.5907 4.6644 19.4923C4.6644 19.1415 4.78747 18.7169 4.84286 18.5507C6.09209 17.64 7.21209 17.2892 7.61209 17.2277C11.0029 19.0123 12.1782 16.483 12.3382 15C11.0459 17.6953 8.89209 16.8338 7.97517 16.0707C5.75978 16.4892 4.3444 17.96 3.91978 18.643C3.52594 18.1815 3.52594 16.5877 3.57517 15.8553C4.05517 15.363 5.11363 14.1261 5.55055 13.1538C5.98747 12.1815 6.5044 11.7323 6.70747 11.6338C7.59978 10.8277 10.049 9.65842 12.6829 11.4553C15.3229 13.2523 15.0152 16.1323 14.5659 17.3446C15.0459 16.723 15.3659 15.0984 15.4336 14.3723C15.6798 10.04 12.0121 8.79688 9.3844 8.9015C6.1844 9.03073 4.25824 12.0215 3.69824 13.5046C2.36286 14.563 1.3167 15.7815 0.965935 16.2553C0.750551 17.6769 1.19978 19.0061 1.45209 19.4984C2.17824 19.4984 3.24901 19.9107 3.69824 20.1138L3.7044 20.1077Z" fill="#072C50"/>
<path d="M2.11059 17.3934C2.4429 17.3442 3.04597 17.0365 2.79982 16.1811C2.47367 16.1688 1.87674 16.3965 2.11059 17.3934Z" fill="black"/>
<path d="M7.96302 12.7906C7.15071 13.1414 6.19687 13.9722 5.82764 14.3476C6.62764 11.7691 8.50456 11.1106 9.34148 11.1045C9.21841 11.523 8.77533 12.4399 7.96302 12.7906Z" fill="#33F498"/>
<path d="M7.96302 12.7906C7.15071 13.1414 6.19687 13.9722 5.82764 14.3476C6.62764 11.7691 8.50456 11.1106 9.34148 11.1045C9.21841 11.523 8.77533 12.4399 7.96302 12.7906Z" fill="#33F498"/>
<defs>
<linearGradient id="paint0_linear_260_2482" x1="20.4122" y1="18.8767" x2="14.8799" y2="6.5136" gradientUnits="userSpaceOnUse">
<stop stop-color="#23DAE6"/>
<stop offset="1" stop-color="#028FBC"/>
</linearGradient>
<linearGradient id="paint1_linear_260_2482" x1="21.0958" y1="12.8097" x2="22.3327" y2="23.6959" gradientUnits="userSpaceOnUse">
<stop stop-color="#05447D"/>
<stop offset="1" stop-color="#40B3D8"/>
</linearGradient>
<linearGradient id="paint2_linear_260_2482" x1="18.9228" y1="16.883" x2="18.6151" y2="29.0184" gradientUnits="userSpaceOnUse">
<stop stop-color="#05447D"/>
<stop offset="1" stop-color="#40D8D8"/>
</linearGradient>
<linearGradient id="paint3_linear_260_2482" x1="7.5996" y1="9.99633" x2="5.63652" y2="5.34403" gradientUnits="userSpaceOnUse">
<stop stop-color="#23DAE6"/>
<stop offset="1" stop-color="#33F498"/>
</linearGradient>
<linearGradient id="paint4_linear_260_2482" x1="5.40285" y1="11.8681" x2="2.24593" y2="8.1327" gradientUnits="userSpaceOnUse">
<stop stop-color="#23DAE6"/>
<stop offset="1" stop-color="#33F498"/>
</linearGradient>
<linearGradient id="paint5_linear_260_2482" x1="18.0309" y1="37.049" x2="13.7663" y2="18.4828" gradientUnits="userSpaceOnUse">
<stop stop-color="#33F498"/>
<stop offset="1" stop-color="#0492B0"/>
</linearGradient>
<linearGradient id="paint6_linear_260_2482" x1="14.9171" y1="9.0186" x2="14.9171" y2="26.4155" gradientUnits="userSpaceOnUse">
<stop stop-color="#05E278"/>
<stop offset="0.48" stop-color="#64FF8F"/>
<stop offset="1" stop-color="#0EAACB"/>
</linearGradient>
<linearGradient id="paint7_linear_260_2482" x1="6.27692" y1="10.7421" x2="1.74769" y2="3.76975" gradientUnits="userSpaceOnUse">
<stop stop-color="#23DAE6"/>
<stop offset="1" stop-color="#33F498"/>
</linearGradient>
<linearGradient id="paint8_linear_260_2482" x1="10.1973" y1="9.38765" x2="10.382" y2="4.59996" gradientUnits="userSpaceOnUse">
<stop stop-color="#23DAE6"/>
<stop offset="1" stop-color="#33F498"/>
</linearGradient>
<linearGradient id="paint9_linear_260_2482" x1="12.88" y1="9.97792" x2="14.9908" y2="5.53484" gradientUnits="userSpaceOnUse">
<stop stop-color="#23DAE6"/>
<stop offset="1" stop-color="#33F498"/>
</linearGradient>
<linearGradient id="paint10_linear_260_2482" x1="14.7143" y1="11.5165" x2="18.8066" y2="9.28876" gradientUnits="userSpaceOnUse">
<stop stop-color="#23DAE6"/>
<stop offset="1" stop-color="#33F498"/>
</linearGradient>
<linearGradient id="paint11_linear_260_2482" x1="9.27986" y1="9.78753" x2="7.18755" y2="1.40599" gradientUnits="userSpaceOnUse">
<stop stop-color="#23DAE6"/>
<stop offset="1" stop-color="#33F498"/>
</linearGradient>
<linearGradient id="paint12_linear_260_2482" x1="11.4215" y1="10.4273" x2="13.4769" y2="1.40579" gradientUnits="userSpaceOnUse">
<stop stop-color="#23DAE6"/>
<stop offset="1" stop-color="#33F498"/>
</linearGradient>
<linearGradient id="paint13_linear_260_2482" x1="13.6679" y1="11.3637" x2="19.4894" y2="4.72982" gradientUnits="userSpaceOnUse">
<stop stop-color="#23DAE6"/>
<stop offset="1" stop-color="#33F498"/>
</linearGradient>
<linearGradient id="paint14_linear_260_2482" x1="14.9109" y1="13.1166" x2="22.8002" y2="10.3596" gradientUnits="userSpaceOnUse">
<stop stop-color="#23DAE6"/>
<stop offset="1" stop-color="#33F498"/>
</linearGradient>
<linearGradient id="paint15_linear_260_2482" x1="9.19365" y1="10.403" x2="9.19365" y2="33.1907" gradientUnits="userSpaceOnUse">
<stop offset="0.45" stop-color="#05447D"/>
<stop offset="1" stop-color="#40B3D8"/>
</linearGradient>
</defs>
</svg>
